<mxfile host="app.diagrams.net" modified="2020-07-18T18:35:40.650Z" agent="5.0 (Macintosh; Intel Mac OS X 10_14_6) AppleWebKit/605.1.15 (KHTML, like Gecko) Version/12.1.2 Safari/605.1.15" etag="Ph4WfoRv__sY8L2JFZVa" version="13.4.6" type="github">
  <diagram name="Page-1" id="74e2e168-ea6b-b213-b513-2b3c1d86103e">
    <mxGraphModel dx="1222" dy="819" grid="1" gridSize="10" guides="1" tooltips="1" connect="1" arrows="1" fold="1" page="1" pageScale="1" pageWidth="1100" pageHeight="850" background="#ffffff" math="0" shadow="0">
      <root>
        <mxCell id="0" />
        <mxCell id="1" parent="0" />
        <mxCell id="77e6c97f196da883-1" value="Fetch Search Results" style="swimlane;html=1;childLayout=stackLayout;startSize=20;rounded=0;shadow=0;labelBackgroundColor=none;strokeWidth=1;fontFamily=Verdana;fontSize=8;align=center;fillColor=#e1d5e7;strokeColor=#9673a6;" parent="1" vertex="1">
          <mxGeometry x="50" y="20" width="990" height="500" as="geometry" />
        </mxCell>
        <mxCell id="77e6c97f196da883-2" value="Caller" style="swimlane;html=1;startSize=20;fillColor=#f9f7ed;strokeColor=#36393d;" parent="77e6c97f196da883-1" vertex="1">
          <mxGeometry y="20" width="160" height="480" as="geometry" />
        </mxCell>
        <mxCell id="77e6c97f196da883-9" value="Process &quot;flowers&quot; search&amp;nbsp;results" style="rounded=1;whiteSpace=wrap;html=1;shadow=0;labelBackgroundColor=none;strokeWidth=1;fontFamily=Verdana;fontSize=13;align=center;fillColor=#f5f5f5;strokeColor=#666666;fontColor=#333333;" parent="77e6c97f196da883-2" vertex="1">
          <mxGeometry x="20" y="155" width="100" height="60" as="geometry" />
        </mxCell>
        <mxCell id="77e6c97f196da883-8" value="Search &quot;flowers&quot;" style="rounded=1;whiteSpace=wrap;html=1;shadow=0;labelBackgroundColor=none;strokeWidth=1;fontFamily=Verdana;fontSize=13;align=center;fillColor=#f5f5f5;strokeColor=#666666;fontColor=#333333;" parent="77e6c97f196da883-2" vertex="1">
          <mxGeometry x="20" y="57.5" width="100" height="60" as="geometry" />
        </mxCell>
        <mxCell id="77e6c97f196da883-26" style="edgeStyle=orthogonalEdgeStyle;rounded=1;html=1;labelBackgroundColor=none;startArrow=none;startFill=0;startSize=5;endArrow=classicThin;endFill=1;endSize=5;jettySize=auto;orthogonalLoop=1;strokeWidth=1;fontFamily=Verdana;fontSize=13;entryX=0;entryY=0.5;entryDx=0;entryDy=0;" parent="77e6c97f196da883-1" source="77e6c97f196da883-8" target="S1F3klHwASRsP-v0PvNu-2" edge="1">
          <mxGeometry relative="1" as="geometry">
            <mxPoint x="200" y="115" as="targetPoint" />
          </mxGeometry>
        </mxCell>
        <mxCell id="S1F3klHwASRsP-v0PvNu-1" value="&quot;flowers" style="edgeLabel;html=1;align=center;verticalAlign=middle;resizable=0;points=[];fontSize=13;" vertex="1" connectable="0" parent="77e6c97f196da883-26">
          <mxGeometry x="-0.1714" y="-2" relative="1" as="geometry">
            <mxPoint as="offset" />
          </mxGeometry>
        </mxCell>
        <mxCell id="77e6c97f196da883-3" value="In memory" style="swimlane;html=1;startSize=20;fontSize=13;fillColor=#ffcc99;strokeColor=#36393d;" parent="77e6c97f196da883-1" vertex="1">
          <mxGeometry x="160" y="20" width="170" height="480" as="geometry" />
        </mxCell>
        <mxCell id="S1F3klHwASRsP-v0PvNu-39" value="Store search results in memory" style="rounded=1;whiteSpace=wrap;html=1;shadow=0;labelBackgroundColor=none;strokeWidth=1;fontFamily=Verdana;fontSize=13;align=center;fillColor=#f5f5f5;strokeColor=#666666;fontColor=#333333;" vertex="1" parent="77e6c97f196da883-3">
          <mxGeometry x="35" y="365" width="100" height="60" as="geometry" />
        </mxCell>
        <mxCell id="S1F3klHwASRsP-v0PvNu-2" value="&quot;flowers&quot;&lt;br&gt;search&amp;nbsp;results in&lt;br style=&quot;font-size: 13px&quot;&gt;memory?" style="rhombus;whiteSpace=wrap;html=1;rounded=0;shadow=0;labelBackgroundColor=none;strokeWidth=1;fontFamily=Verdana;fontSize=13;align=center;fillColor=#fff2cc;strokeColor=#d6b656;" vertex="1" parent="77e6c97f196da883-3">
          <mxGeometry x="20" y="50" width="150" height="75" as="geometry" />
        </mxCell>
        <mxCell id="S1F3klHwASRsP-v0PvNu-6" value="Yes" style="text;html=1;strokeColor=none;fillColor=none;align=center;verticalAlign=middle;whiteSpace=wrap;rounded=0;fontSize=13;" vertex="1" parent="77e6c97f196da883-3">
          <mxGeometry x="90" y="125" width="40" height="20" as="geometry" />
        </mxCell>
        <mxCell id="77e6c97f196da883-4" value="Retrofit" style="swimlane;html=1;startSize=20;fontSize=13;fillColor=#ffcccc;strokeColor=#36393d;" parent="77e6c97f196da883-1" vertex="1">
          <mxGeometry x="330" y="20" width="160" height="480" as="geometry" />
        </mxCell>
        <mxCell id="S1F3klHwASRsP-v0PvNu-9" value="No" style="text;html=1;strokeColor=none;fillColor=none;align=center;verticalAlign=middle;whiteSpace=wrap;rounded=0;fontSize=13;" vertex="1" parent="77e6c97f196da883-4">
          <mxGeometry x="-20" y="70" width="40" height="20" as="geometry" />
        </mxCell>
        <mxCell id="S1F3klHwASRsP-v0PvNu-31" value="Return search results" style="rounded=1;whiteSpace=wrap;html=1;shadow=0;labelBackgroundColor=none;strokeWidth=1;fontFamily=Verdana;fontSize=13;align=center;fillColor=#f5f5f5;strokeColor=#666666;fontColor=#333333;" vertex="1" parent="77e6c97f196da883-4">
          <mxGeometry x="40" y="365" width="100" height="60" as="geometry" />
        </mxCell>
        <mxCell id="S1F3klHwASRsP-v0PvNu-11" value="Perform API request with OkHttp" style="rounded=1;whiteSpace=wrap;html=1;shadow=0;labelBackgroundColor=none;strokeWidth=1;fontFamily=Verdana;fontSize=13;align=center;fillColor=#f5f5f5;strokeColor=#666666;fontColor=#333333;" vertex="1" parent="77e6c97f196da883-4">
          <mxGeometry x="40" y="57.5" width="100" height="60" as="geometry" />
        </mxCell>
        <mxCell id="77e6c97f196da883-5" value="Disk" style="swimlane;html=1;startSize=20;fontSize=13;fillColor=#cdeb8b;strokeColor=#36393d;" parent="77e6c97f196da883-1" vertex="1">
          <mxGeometry x="490" y="20" width="160" height="480" as="geometry" />
        </mxCell>
        <mxCell id="S1F3klHwASRsP-v0PvNu-19" value="Get results from disk" style="rounded=1;whiteSpace=wrap;html=1;shadow=0;labelBackgroundColor=none;strokeWidth=1;fontFamily=Verdana;fontSize=13;align=center;fillColor=#f5f5f5;strokeColor=#666666;fontColor=#333333;" vertex="1" parent="77e6c97f196da883-5">
          <mxGeometry x="10" y="160" width="100" height="60" as="geometry" />
        </mxCell>
        <mxCell id="S1F3klHwASRsP-v0PvNu-27" value="Store &amp;nbsp;&quot;flowers: results in disk cache" style="rounded=1;whiteSpace=wrap;html=1;shadow=0;labelBackgroundColor=none;strokeWidth=1;fontFamily=Verdana;fontSize=13;align=center;fillColor=#f5f5f5;strokeColor=#666666;fontColor=#333333;" vertex="1" parent="77e6c97f196da883-5">
          <mxGeometry x="50" y="270" width="100" height="60" as="geometry" />
        </mxCell>
        <mxCell id="77e6c97f196da883-6" value="OkHttp" style="swimlane;html=1;startSize=20;fontSize=13;fillColor=#cce5ff;strokeColor=#36393d;" parent="77e6c97f196da883-1" vertex="1">
          <mxGeometry x="650" y="20" width="180" height="480" as="geometry" />
        </mxCell>
        <mxCell id="S1F3klHwASRsP-v0PvNu-44" style="edgeStyle=elbowEdgeStyle;rounded=1;orthogonalLoop=1;jettySize=auto;elbow=vertical;html=1;exitX=0.5;exitY=1;exitDx=0;exitDy=0;entryX=0.5;entryY=0;entryDx=0;entryDy=0;fontSize=13;" edge="1" parent="77e6c97f196da883-6" source="S1F3klHwASRsP-v0PvNu-43" target="S1F3klHwASRsP-v0PvNu-7">
          <mxGeometry relative="1" as="geometry" />
        </mxCell>
        <mxCell id="S1F3klHwASRsP-v0PvNu-22" value="Yes" style="text;html=1;strokeColor=none;fillColor=none;align=center;verticalAlign=middle;whiteSpace=wrap;rounded=0;fontSize=13;" vertex="1" parent="77e6c97f196da883-6">
          <mxGeometry y="160" width="40" height="20" as="geometry" />
        </mxCell>
        <mxCell id="S1F3klHwASRsP-v0PvNu-43" value="Add Authorization header" style="rounded=1;whiteSpace=wrap;html=1;shadow=0;labelBackgroundColor=none;strokeWidth=1;fontFamily=Verdana;fontSize=13;align=center;fillColor=#f5f5f5;strokeColor=#666666;fontColor=#333333;" vertex="1" parent="77e6c97f196da883-6">
          <mxGeometry x="45" y="57.5" width="100" height="60" as="geometry" />
        </mxCell>
        <mxCell id="S1F3klHwASRsP-v0PvNu-30" value="Return search results" style="rounded=1;whiteSpace=wrap;html=1;shadow=0;labelBackgroundColor=none;strokeWidth=1;fontFamily=Verdana;fontSize=13;align=center;fillColor=#f5f5f5;strokeColor=#666666;fontColor=#333333;" vertex="1" parent="77e6c97f196da883-6">
          <mxGeometry x="40" y="365" width="100" height="60" as="geometry" />
        </mxCell>
        <mxCell id="S1F3klHwASRsP-v0PvNu-25" value="Cache results" style="rounded=1;whiteSpace=wrap;html=1;shadow=0;labelBackgroundColor=none;strokeWidth=1;fontFamily=Verdana;fontSize=13;align=center;fillColor=#f5f5f5;strokeColor=#666666;fontColor=#333333;" vertex="1" parent="77e6c97f196da883-6">
          <mxGeometry x="40" y="270" width="100" height="60" as="geometry" />
        </mxCell>
        <mxCell id="S1F3klHwASRsP-v0PvNu-7" value="&quot;flowers&quot;&lt;br&gt;search&amp;nbsp;results on&lt;br style=&quot;font-size: 13px&quot;&gt;disk&amp;nbsp;cache?" style="rhombus;whiteSpace=wrap;html=1;rounded=0;shadow=0;labelBackgroundColor=none;strokeWidth=1;fontFamily=Verdana;fontSize=13;align=center;fillColor=#fff2cc;strokeColor=#d6b656;" vertex="1" parent="77e6c97f196da883-6">
          <mxGeometry x="20" y="145" width="150" height="90" as="geometry" />
        </mxCell>
        <mxCell id="S1F3klHwASRsP-v0PvNu-35" value="No" style="text;html=1;strokeColor=none;fillColor=none;align=center;verticalAlign=middle;whiteSpace=wrap;rounded=0;fontSize=13;" vertex="1" parent="77e6c97f196da883-6">
          <mxGeometry x="145" y="147.5" width="40" height="20" as="geometry" />
        </mxCell>
        <mxCell id="S1F3klHwASRsP-v0PvNu-24" style="edgeStyle=elbowEdgeStyle;rounded=1;orthogonalLoop=1;jettySize=auto;elbow=vertical;html=1;exitX=1;exitY=0.5;exitDx=0;exitDy=0;entryX=0;entryY=0.5;entryDx=0;entryDy=0;fontSize=13;" edge="1" parent="77e6c97f196da883-1" source="S1F3klHwASRsP-v0PvNu-7" target="S1F3klHwASRsP-v0PvNu-23">
          <mxGeometry relative="1" as="geometry">
            <Array as="points" />
          </mxGeometry>
        </mxCell>
        <mxCell id="S1F3klHwASRsP-v0PvNu-4" style="edgeStyle=elbowEdgeStyle;rounded=1;orthogonalLoop=1;jettySize=auto;html=1;exitX=0.5;exitY=1;exitDx=0;exitDy=0;entryX=0.5;entryY=0;entryDx=0;entryDy=0;elbow=vertical;fontSize=13;" edge="1" parent="77e6c97f196da883-1" source="S1F3klHwASRsP-v0PvNu-2" target="77e6c97f196da883-9">
          <mxGeometry relative="1" as="geometry" />
        </mxCell>
        <mxCell id="S1F3klHwASRsP-v0PvNu-5" value="Search&lt;br style=&quot;font-size: 13px;&quot;&gt;results" style="edgeLabel;html=1;align=center;verticalAlign=middle;resizable=0;points=[];fontSize=13;" vertex="1" connectable="0" parent="S1F3klHwASRsP-v0PvNu-4">
          <mxGeometry x="-0.33" y="1" relative="1" as="geometry">
            <mxPoint as="offset" />
          </mxGeometry>
        </mxCell>
        <mxCell id="S1F3klHwASRsP-v0PvNu-14" style="edgeStyle=orthogonalEdgeStyle;rounded=1;html=1;labelBackgroundColor=none;startArrow=none;startFill=0;startSize=5;endArrow=classicThin;endFill=1;endSize=5;jettySize=auto;orthogonalLoop=1;strokeWidth=1;fontFamily=Verdana;fontSize=13;entryX=0;entryY=0.5;entryDx=0;entryDy=0;" edge="1" parent="77e6c97f196da883-1" source="S1F3klHwASRsP-v0PvNu-2" target="S1F3klHwASRsP-v0PvNu-11">
          <mxGeometry relative="1" as="geometry">
            <mxPoint x="130" y="215" as="sourcePoint" />
            <mxPoint x="370" y="215" as="targetPoint" />
          </mxGeometry>
        </mxCell>
        <mxCell id="S1F3klHwASRsP-v0PvNu-16" style="edgeStyle=orthogonalEdgeStyle;rounded=1;html=1;labelBackgroundColor=none;startArrow=none;startFill=0;startSize=5;endArrow=classicThin;endFill=1;endSize=5;jettySize=auto;orthogonalLoop=1;strokeWidth=1;fontFamily=Verdana;fontSize=13;exitX=1;exitY=0.5;exitDx=0;exitDy=0;entryX=0;entryY=0.5;entryDx=0;entryDy=0;" edge="1" parent="77e6c97f196da883-1" source="S1F3klHwASRsP-v0PvNu-11" target="S1F3klHwASRsP-v0PvNu-43">
          <mxGeometry relative="1" as="geometry">
            <mxPoint x="320" y="117.5" as="sourcePoint" />
            <mxPoint x="630" y="108" as="targetPoint" />
          </mxGeometry>
        </mxCell>
        <mxCell id="S1F3klHwASRsP-v0PvNu-26" style="edgeStyle=elbowEdgeStyle;rounded=1;orthogonalLoop=1;jettySize=auto;elbow=vertical;html=1;exitX=0.5;exitY=1;exitDx=0;exitDy=0;entryX=1;entryY=0.5;entryDx=0;entryDy=0;fontSize=13;" edge="1" parent="77e6c97f196da883-1" source="S1F3klHwASRsP-v0PvNu-23" target="S1F3klHwASRsP-v0PvNu-25">
          <mxGeometry relative="1" as="geometry">
            <Array as="points">
              <mxPoint x="890" y="320" />
            </Array>
          </mxGeometry>
        </mxCell>
        <mxCell id="S1F3klHwASRsP-v0PvNu-29" value="Search&lt;br style=&quot;font-size: 13px;&quot;&gt;Results" style="edgeLabel;html=1;align=center;verticalAlign=middle;resizable=0;points=[];fontSize=13;" vertex="1" connectable="0" parent="S1F3klHwASRsP-v0PvNu-26">
          <mxGeometry x="0.0427" y="4" relative="1" as="geometry">
            <mxPoint x="-4" y="-59.64" as="offset" />
          </mxGeometry>
        </mxCell>
        <mxCell id="S1F3klHwASRsP-v0PvNu-28" style="edgeStyle=elbowEdgeStyle;rounded=1;orthogonalLoop=1;jettySize=auto;elbow=vertical;html=1;exitX=0;exitY=0.5;exitDx=0;exitDy=0;entryX=1;entryY=0.5;entryDx=0;entryDy=0;fontSize=13;" edge="1" parent="77e6c97f196da883-1" source="S1F3klHwASRsP-v0PvNu-25" target="S1F3klHwASRsP-v0PvNu-27">
          <mxGeometry relative="1" as="geometry" />
        </mxCell>
        <mxCell id="S1F3klHwASRsP-v0PvNu-32" style="edgeStyle=elbowEdgeStyle;rounded=1;orthogonalLoop=1;jettySize=auto;elbow=horizontal;html=1;exitX=0;exitY=0.5;exitDx=0;exitDy=0;entryX=1;entryY=0.5;entryDx=0;entryDy=0;fontSize=13;" edge="1" parent="77e6c97f196da883-1" source="S1F3klHwASRsP-v0PvNu-30" target="S1F3klHwASRsP-v0PvNu-31">
          <mxGeometry relative="1" as="geometry" />
        </mxCell>
        <mxCell id="S1F3klHwASRsP-v0PvNu-36" value="Search&lt;br style=&quot;font-size: 13px;&quot;&gt;Results" style="edgeLabel;html=1;align=center;verticalAlign=middle;resizable=0;points=[];fontSize=13;" vertex="1" connectable="0" parent="S1F3klHwASRsP-v0PvNu-32">
          <mxGeometry x="0.0026" y="29" relative="1" as="geometry">
            <mxPoint x="28" y="-28" as="offset" />
          </mxGeometry>
        </mxCell>
        <mxCell id="S1F3klHwASRsP-v0PvNu-33" style="edgeStyle=elbowEdgeStyle;rounded=1;orthogonalLoop=1;jettySize=auto;elbow=vertical;html=1;exitX=0.5;exitY=1;exitDx=0;exitDy=0;entryX=0.75;entryY=0;entryDx=0;entryDy=0;fontSize=13;" edge="1" parent="77e6c97f196da883-1" source="S1F3klHwASRsP-v0PvNu-27" target="S1F3klHwASRsP-v0PvNu-30">
          <mxGeometry relative="1" as="geometry" />
        </mxCell>
        <mxCell id="S1F3klHwASRsP-v0PvNu-38" value="Search&lt;br style=&quot;font-size: 13px;&quot;&gt;Restuls" style="edgeLabel;html=1;align=center;verticalAlign=middle;resizable=0;points=[];fontSize=13;" vertex="1" connectable="0" parent="S1F3klHwASRsP-v0PvNu-33">
          <mxGeometry x="0.2082" relative="1" as="geometry">
            <mxPoint as="offset" />
          </mxGeometry>
        </mxCell>
        <mxCell id="S1F3klHwASRsP-v0PvNu-34" style="edgeStyle=elbowEdgeStyle;rounded=1;orthogonalLoop=1;jettySize=auto;elbow=vertical;html=1;exitX=0.25;exitY=1;exitDx=0;exitDy=0;entryX=0;entryY=0.25;entryDx=0;entryDy=0;fontSize=13;" edge="1" parent="77e6c97f196da883-1" source="S1F3klHwASRsP-v0PvNu-19" target="S1F3klHwASRsP-v0PvNu-30">
          <mxGeometry relative="1" as="geometry">
            <mxPoint x="680" y="400" as="targetPoint" />
            <Array as="points">
              <mxPoint x="590" y="400" />
            </Array>
          </mxGeometry>
        </mxCell>
        <mxCell id="S1F3klHwASRsP-v0PvNu-37" value="Search&lt;br style=&quot;font-size: 13px;&quot;&gt;Results" style="edgeLabel;html=1;align=center;verticalAlign=middle;resizable=0;points=[];fontSize=13;" vertex="1" connectable="0" parent="S1F3klHwASRsP-v0PvNu-34">
          <mxGeometry x="-0.8593" y="-1" relative="1" as="geometry">
            <mxPoint as="offset" />
          </mxGeometry>
        </mxCell>
        <mxCell id="S1F3klHwASRsP-v0PvNu-40" value="Search&lt;br style=&quot;font-size: 13px;&quot;&gt;Results" style="edgeStyle=elbowEdgeStyle;rounded=1;orthogonalLoop=1;jettySize=auto;elbow=horizontal;html=1;exitX=0;exitY=0.5;exitDx=0;exitDy=0;entryX=1;entryY=0.5;entryDx=0;entryDy=0;fontSize=13;" edge="1" parent="77e6c97f196da883-1" source="S1F3klHwASRsP-v0PvNu-31" target="S1F3klHwASRsP-v0PvNu-39">
          <mxGeometry relative="1" as="geometry">
            <Array as="points">
              <mxPoint x="340" y="415" />
            </Array>
          </mxGeometry>
        </mxCell>
        <mxCell id="S1F3klHwASRsP-v0PvNu-41" style="edgeStyle=elbowEdgeStyle;rounded=1;orthogonalLoop=1;jettySize=auto;elbow=vertical;html=1;exitX=0;exitY=0.5;exitDx=0;exitDy=0;entryX=0.5;entryY=1;entryDx=0;entryDy=0;fontSize=13;" edge="1" parent="77e6c97f196da883-1" source="S1F3klHwASRsP-v0PvNu-39" target="77e6c97f196da883-9">
          <mxGeometry relative="1" as="geometry">
            <Array as="points">
              <mxPoint x="130" y="410" />
            </Array>
          </mxGeometry>
        </mxCell>
        <mxCell id="S1F3klHwASRsP-v0PvNu-42" value="Search&lt;br style=&quot;font-size: 13px;&quot;&gt;Results" style="edgeLabel;html=1;align=center;verticalAlign=middle;resizable=0;points=[];fontSize=13;" vertex="1" connectable="0" parent="S1F3klHwASRsP-v0PvNu-41">
          <mxGeometry x="0.3021" y="-3" relative="1" as="geometry">
            <mxPoint as="offset" />
          </mxGeometry>
        </mxCell>
        <mxCell id="S1F3klHwASRsP-v0PvNu-45" style="edgeStyle=elbowEdgeStyle;rounded=1;orthogonalLoop=1;jettySize=auto;elbow=vertical;html=1;exitX=0;exitY=0.5;exitDx=0;exitDy=0;fontSize=13;" edge="1" parent="77e6c97f196da883-1" source="S1F3klHwASRsP-v0PvNu-7" target="S1F3klHwASRsP-v0PvNu-19">
          <mxGeometry relative="1" as="geometry" />
        </mxCell>
        <mxCell id="S1F3klHwASRsP-v0PvNu-46" value="flowers" style="edgeLabel;html=1;align=center;verticalAlign=middle;resizable=0;points=[];fontSize=13;" vertex="1" connectable="0" parent="S1F3klHwASRsP-v0PvNu-45">
          <mxGeometry x="0.3143" y="1" relative="1" as="geometry">
            <mxPoint x="16" y="-1" as="offset" />
          </mxGeometry>
        </mxCell>
        <mxCell id="77e6c97f196da883-7" value="Imgur" style="swimlane;html=1;startSize=20;fontSize=13;fillColor=#ffff88;strokeColor=#36393d;" parent="77e6c97f196da883-1" vertex="1">
          <mxGeometry x="830" y="20" width="160" height="480" as="geometry">
            <mxRectangle x="830" y="20" width="30" height="480" as="alternateBounds" />
          </mxGeometry>
        </mxCell>
        <mxCell id="S1F3klHwASRsP-v0PvNu-23" value="Return search results for &quot;flowers&quot;" style="rounded=1;whiteSpace=wrap;html=1;shadow=0;labelBackgroundColor=none;strokeWidth=1;fontFamily=Verdana;fontSize=13;align=center;fillColor=#f5f5f5;strokeColor=#666666;fontColor=#333333;" vertex="1" parent="77e6c97f196da883-7">
          <mxGeometry x="40" y="160" width="100" height="60" as="geometry" />
        </mxCell>
      </root>
    </mxGraphModel>
  </diagram>
</mxfile>
